<svg xmlns="http://www.w3.org/2000/svg" width="60" height="60" viewBox="0 0 60 60">
  <g fill="none" fill-rule="evenodd">
    <circle cx="29.736" cy="29.736" r="29.736" fill="#6B60F1"/>
    <g transform="translate(11 12)">
      <circle cx="19" cy="19" r="4" fill="#FFF"/>
      <path fill="#FFF" fill-rule="nonzero" d="M14.25,3.16666667 L11.3525,6.33333333 L6.33333333,6.33333333 C4.59166667,6.33333333 3.16666667,7.75833333 3.16666667,9.5 L3.16666667,28.5 C3.16666667,30.2416667 4.59166667,31.6666667 6.33333333,31.6666667 L31.6666667,31.6666667 C33.4083333,31.6666667 34.8333333,30.2416667 34.8333333,28.5 L34.8333333,9.5 C34.8333333,7.75833333 33.4083333,6.33333333 31.6666667,6.33333333 L26.6475,6.33333333 L23.75,3.16666667 L14.25,3.16666667 Z M19,26.9166667 C14.63,26.9166667 11.0833333,23.37 11.0833333,19 C11.0833333,14.63 14.63,11.0833333 19,11.0833333 C23.37,11.0833333 26.9166667,14.63 26.9166667,19 C26.9166667,23.37 23.37,26.9166667 19,26.9166667 Z"/>
      <polygon points="0 0 38 0 38 38 0 38"/>
    </g>
  </g>
</svg>
