<svg width="1280" height="832" viewBox="0 0 1280 832" fill="none" xmlns="http://www.w3.org/2000/svg">
<g clip-path="url(#clip0_1416_2)">
<rect width="1280" height="832" fill="#EEF2FD"/>
<path d="M305.369 -3.66911C323.024 -1.95132 340.607 0.188547 358.12 2.7505C361.92 3.30637 365.868 3.9354 368.951 5.84237C380.135 12.7597 369.723 29.163 366.432 37.6436C361.494 50.3647 355.317 62.8847 345.911 73.8596C329.585 92.7221 305.046 105.703 277.38 110.111C249.666 114.307 221.047 109.585 197.457 96.9241C184.039 89.6484 169.537 81.6096 157.121 73.6019C144.724 65.6066 128.453 62.2499 114.299 70.0816C100.987 77.4479 95.7639 93.2044 102.693 105.095C107.785 113.832 118.124 119.924 123.201 128.667C126.385 134.15 127.29 140.364 127.077 146.437C126.982 152.523 125.447 158.536 122.558 164.141C108.098 190.888 62.8512 195.743 31.7257 193.525C11.3021 192.069 -9.29227 187.954 -26.3654 178.636C-42.3122 169.934 -58.14 154.02 -57.9991 137.463C-57.8124 115.541 -49.7067 92.1314 -46.11 70.3708C-43.5983 55.1742 -41.2969 39.5655 -32.6952 25.953C-22.4793 9.78564 -4.02722 -2.159 16.3021 -9.44479C36.6315 -16.7306 58.85 -19.7287 80.938 -21.3971C165.125 -27.6497 249.83 -15.5398 326.49 13.7082" fill="#DBD8FF" fill-opacity="0.6"/>
<path d="M322.093 13.359C322.292 13.3672 322.482 13.4437 322.631 13.5756C322.78 13.7075 322.879 13.8866 322.911 14.0829C324.104 21.3829 322.057 29.567 316.651 39.1029C298.361 71.3701 260.529 90.2415 226.691 83.9629C217.048 82.1747 208.218 77.2261 199.678 72.44C191.782 68.0144 183.617 63.4385 174.753 61.2956C157.745 57.1841 141.416 58.933 128.773 66.222C113.304 75.1399 102.302 92.5997 95.1385 119.599C93.8341 124.515 92.6429 129.586 91.4904 134.491C87.6833 150.696 83.7468 167.453 75.0178 181.885C62.4699 202.63 39.3759 218.174 13.2405 223.465C13.1293 223.488 13.0148 223.488 12.9034 223.466C12.792 223.444 12.6861 223.401 12.5915 223.338C12.4969 223.276 12.4157 223.195 12.3524 223.101C12.289 223.006 12.2447 222.901 12.2222 222.79C12.1997 222.678 12.1994 222.564 12.2211 222.452C12.2429 222.341 12.2865 222.235 12.3492 222.14C12.4119 222.046 12.4927 221.965 12.5869 221.901C12.681 221.838 12.7867 221.794 12.8979 221.771C38.5679 216.574 61.2372 201.329 73.5386 180.99C82.1265 166.792 86.0313 150.17 89.8079 134.095C90.963 129.178 92.1569 124.095 93.4678 119.155C100.756 91.6884 112.022 73.8839 127.91 64.7251C140.938 57.2143 157.719 55.4 175.159 59.6159C184.254 61.8148 192.525 66.45 200.523 70.9325C209.328 75.8666 217.644 80.5273 227.006 82.2638C260.139 88.4117 297.209 69.897 315.148 38.2504C320.35 29.0704 322.332 21.2573 321.205 14.3622C321.168 14.136 321.222 13.9044 321.356 13.7183C321.49 13.5321 321.692 13.4068 321.918 13.3697C321.976 13.3604 322.035 13.3568 322.093 13.359Z" fill="white"/>
<path d="M305.567 -1.57261C305.589 -1.57181 305.61 -1.57041 305.631 -1.56791C305.859 -1.5421 306.067 -1.42689 306.21 -1.24761C306.353 -1.06834 306.419 -0.839674 306.393 -0.611912C304.292 17.4137 295.263 33.9156 281.215 45.4038C267.092 56.8007 249.091 62.2583 231.017 60.6227C217.146 59.3215 203.974 53.8499 191.236 48.5587C177.608 42.8977 163.516 37.0438 148.745 36.4525L148.725 36.4517C140.284 36.1804 131.873 37.5995 123.988 40.6253C116.103 43.6512 108.902 48.2229 102.809 54.0717C88.5181 67.9988 82.3019 86.7206 75.7206 106.542C71.4454 119.417 67.0244 132.732 60.1852 144.463C46.9185 166.809 25.3255 182.976 0.148301 189.413C0.0381482 189.441 -0.0763129 189.446 -0.188491 189.429C-0.300669 189.412 -0.408382 189.373 -0.505508 189.314C-0.602633 189.256 -0.687245 189.178 -0.754531 189.087C-0.821817 188.996 -0.870394 188.892 -0.897597 188.782C-0.924801 188.672 -0.930121 188.557 -0.9131 188.445C-0.896079 188.333 -0.857131 188.225 -0.798476 188.128C-0.739822 188.031 -0.662539 187.946 -0.571181 187.879C-0.479824 187.812 -0.376158 187.763 -0.266006 187.736C24.4585 181.414 45.6633 165.537 58.6916 143.593C65.4406 132.017 69.8327 118.789 74.0799 105.997C80.4367 86.8517 87.0105 67.0545 101.602 52.8336C107.865 46.8228 115.266 42.1245 123.37 39.0148C131.474 35.905 140.118 34.4465 148.794 34.7251L148.814 34.7259C163.894 35.3295 178.131 41.2438 191.899 46.9627C204.518 52.2052 217.568 57.6259 231.179 58.9021C248.802 60.4956 266.354 55.1741 280.125 44.0626C293.824 32.8611 302.628 16.7706 304.676 -0.805712C304.7 -1.02249 304.806 -1.22203 304.971 -1.36428C305.136 -1.50652 305.349 -1.58095 305.567 -1.57261Z" fill="white"/>
<path d="M278.936 -11.4788C279.122 -11.4711 279.3 -11.4038 279.445 -11.2869C279.589 -11.1699 279.692 -11.0094 279.738 -10.8293C284.49 7.77385 273.184 25.9754 261.02 36.8061C254.096 42.9718 240.001 53.081 223.448 51.4128C208.963 49.9651 197.642 40.2047 186.695 30.766C178.973 24.1085 170.988 17.2244 161.873 13.157C146.876 6.46645 128.174 7.47265 111.847 15.8496C97.6143 23.1521 85.1471 35.7896 75.792 52.3951C71.27 60.4225 67.602 69.0976 64.0548 77.4869C59.6192 87.9769 55.0325 98.8255 48.7199 108.557C34.3188 130.618 11.7957 146.107 -13.9579 151.659C-14.1818 151.706 -14.4153 151.663 -14.6071 151.538C-14.799 151.413 -14.9334 151.217 -14.9811 150.993C-15.0287 150.769 -14.9856 150.536 -14.8613 150.343C-14.737 150.151 -14.5416 150.016 -14.3178 149.968C10.9878 144.513 33.1191 129.293 47.2696 107.616C53.4996 98.0124 58.0562 87.2357 62.4627 76.814C66.0288 68.3803 69.7158 59.6592 74.2862 51.547C83.8075 34.6451 96.5227 21.7692 111.058 14.3115C127.846 5.69775 147.106 4.67555 162.577 11.5791C171.925 15.7497 180.007 22.7182 187.824 29.4571C199.062 39.1471 209.678 48.2992 223.62 49.6932C239.528 51.2869 253.158 41.4925 259.871 35.5149C271.655 25.0222 282.623 7.45024 278.064 -10.4013C278.007 -10.6233 278.041 -10.8588 278.158 -11.056C278.275 -11.2531 278.465 -11.3958 278.687 -11.4526C278.768 -11.4734 278.852 -11.4822 278.936 -11.4788Z" fill="white"/>
<path d="M928.902 718.112C925.47 671.214 931.182 621.25 958.948 583.299C1007.51 516.929 1105.18 509.892 1184.98 529.743C1264.79 549.594 1339.95 589.796 1421.93 596.29C1491.28 601.783 1559.96 582.663 1626.9 563.728C1608.96 595.431 1588.53 625.659 1565.8 654.126C1504 731.525 1426.23 794.655 1345.61 852.194C1278.66 899.986 1208.36 944.827 1130.41 971.127C1059.35 995.101 1000.23 988.453 927.532 990.683C899.045 991.557 868.505 989.021 846 971.535C876.136 936.87 917.588 893.528 936.085 851.191C953.327 811.725 932.018 760.693 928.902 718.112Z" fill="#DBD8FF" fill-opacity="0.6"/>
<path d="M961.776 628.401C975.166 630.503 987.205 638.213 993.979 649.026C1004.55 665.898 1006.38 682.718 999.427 699.017C979.172 746.497 892.509 774.219 863.75 780.19C843.119 784.472 814.263 781.873 795.141 761.737C789.727 756.035 786.9 750.344 786.74 744.828C786.549 738.354 790.06 733.005 793.039 729.659C805.72 715.405 825.432 714.03 844.493 712.701C861.29 711.529 878.65 710.322 890.647 700.181C899.633 692.585 904.299 681.287 909.238 669.324C914.198 657.316 919.325 644.898 929.271 636.527C930.58 635.427 931.969 634.425 933.426 633.529C941.375 628.641 951.435 626.778 961.776 628.401ZM844.839 717.653C825.938 718.971 808.084 720.213 796.748 732.959C794.368 735.634 791.56 739.839 791.701 744.683C791.826 748.942 794.195 753.529 798.742 758.319C816.459 776.976 843.418 779.339 862.74 775.328C898.082 767.992 976.88 739.216 994.862 697.069C1001.14 682.352 999.428 667.076 989.772 651.663C983.751 642.049 972.997 635.187 961.006 633.305C950.187 631.608 939.786 634.173 932.468 640.325C923.451 647.915 918.776 659.234 913.827 671.218C908.878 683.203 903.761 695.598 893.853 703.973C892.214 705.356 890.474 706.613 888.647 707.735C876.063 715.476 860.221 716.58 844.839 717.653Z" fill="white" fill-opacity="0.3"/>
<path d="M1293.04 242.573C1306.43 244.674 1318.47 252.385 1325.25 263.198C1335.82 280.07 1337.65 296.89 1330.69 313.189C1310.44 360.669 1223.78 388.391 1195.02 394.362C1174.39 398.644 1145.53 396.045 1126.41 375.909C1120.99 370.207 1118.17 364.516 1118.01 359C1117.82 352.526 1121.33 347.177 1124.31 343.831C1136.99 329.577 1156.7 328.202 1175.76 326.873C1192.56 325.701 1209.92 324.494 1221.91 314.353C1230.9 306.757 1235.57 295.459 1240.51 283.496C1245.47 271.488 1250.59 259.07 1260.54 250.699C1261.85 249.599 1263.24 248.597 1264.69 247.701C1272.64 242.812 1282.7 240.95 1293.04 242.573ZM1176.11 331.824C1157.21 333.142 1139.35 334.385 1128.02 347.131C1125.64 349.806 1122.83 354.011 1122.97 358.855C1123.09 363.114 1125.46 367.701 1130.01 372.491C1147.73 391.148 1174.69 393.511 1194.01 389.5C1229.35 382.164 1308.15 353.388 1326.13 311.241C1332.41 296.524 1330.7 281.248 1321.04 265.834C1315.02 256.221 1304.26 249.359 1292.27 247.477C1281.45 245.78 1271.05 248.345 1263.74 254.497C1254.72 262.087 1250.04 273.405 1245.09 285.39C1240.15 297.375 1235.03 309.769 1225.12 318.145C1223.48 319.528 1221.74 320.785 1219.91 321.907C1207.33 329.648 1191.49 330.752 1176.11 331.824Z" fill="white" fill-opacity="0.3"/>
<path d="M1031.4 449.988C1049.99 436.38 1074.93 430.629 1096.83 437.786C1165.03 460.07 1143.5 562.067 1079.14 571.738C1053.5 575.591 1014.64 562.749 998.707 541.292C977.372 512.551 1006.63 468.119 1031.4 449.988Z" fill="#DBD8FF" fill-opacity="0.6"/>
<path d="M273.455 638.315C322.387 602.447 388.019 587.291 445.658 606.154C625.12 664.888 568.453 933.718 399.093 959.208C331.616 969.364 229.344 935.517 187.426 878.962C131.28 803.209 208.267 686.101 273.455 638.315Z" fill="#DBD8FF" fill-opacity="0.2"/>
<path d="M678.682 -34.8957C697.094 -48.3339 721.791 -54.0123 743.479 -46.945C811.009 -24.9399 789.686 75.7785 725.958 85.3285C700.567 89.1336 662.083 76.4525 646.31 55.2642C625.182 26.8829 654.152 -16.9926 678.682 -34.8957Z" fill="#DBD8FF" fill-opacity="0.6"/>
<path d="M1062.01 695.29C1056.87 708.837 1038.4 714.251 1036.82 698.585C1035.6 686.412 1046.1 673.323 1053.55 670.968C1054.11 670.81 1054.7 670.764 1055.28 670.833C1055.86 670.903 1056.42 671.086 1056.93 671.373C1061.85 673.83 1064.49 682.617 1062.98 691.509C1062.78 692.798 1062.46 694.064 1062.01 695.29Z" fill="#F1F1F1"/>
<path d="M139.311 554.466C142.628 553.832 146.032 555.784 148.957 560.017C160.113 576.174 162.142 598.721 154.123 617.463C149.604 627.829 142.506 636.863 133.507 643.703C134.525 645.051 135.605 646.356 136.746 647.617C155.412 668.245 187.348 674.804 213.813 664.77C206.257 641.78 209.261 615.194 223.957 595.488C227.351 590.937 234.331 583.562 242.867 585.338C248.364 586.481 252.948 591.408 255.445 598.858C263.992 624.35 247.185 651.052 227.031 663.232C224.623 664.687 222.13 665.997 219.566 667.154C223.38 677.364 229.641 686.482 237.8 693.705C250.626 704.848 267.838 710.217 284.976 709.962C285.317 709.386 285.666 708.811 286.023 708.237C296.038 692.124 310.005 678.842 326.598 669.654C329.351 667.819 332.625 666.929 335.928 667.117C342.059 667.953 345.484 674.776 344.724 680.378C343.955 686.026 340.154 690.427 336.928 693.634C323.586 706.511 305.94 713.973 287.41 714.572C277.899 731.622 274.483 749.699 277.793 765.917C280.286 778.138 286.987 789.097 296.726 796.884C304.379 784.011 316.378 772.574 331.682 763.781C336.779 760.851 349.497 754.876 357.519 762.643C361.281 766.288 362.747 772.322 361.537 779.195C360.601 783.966 358.717 788.5 355.997 792.529C353.277 796.558 349.777 799.999 345.703 802.648C336.363 809.094 324.861 811.598 313.687 809.618C308.187 808.495 302.943 806.36 298.221 803.32C296.583 806.552 295.226 809.918 294.165 813.383C287.874 834.012 294.522 857.121 309.975 868.325C314.865 871.498 320.352 873.635 326.098 874.605C331.845 875.575 337.729 875.357 343.387 873.965C349.046 872.572 354.359 870.035 358.999 866.508C363.64 862.982 367.509 858.543 370.368 853.463C370.497 853.203 370.676 852.972 370.894 852.781C371.113 852.591 371.366 852.446 371.641 852.353C371.915 852.261 372.205 852.224 372.494 852.244C372.783 852.264 373.066 852.341 373.325 852.47C373.584 852.599 373.816 852.778 374.006 852.996C374.196 853.215 374.342 853.469 374.434 853.743C374.526 854.018 374.563 854.308 374.543 854.597C374.523 854.887 374.447 855.169 374.318 855.428C371.173 861.083 366.896 866.027 361.756 869.954C356.616 873.88 350.721 876.705 344.441 878.25C338.16 879.796 331.629 880.03 325.253 878.937C318.878 877.845 312.796 875.449 307.386 871.9C290.456 859.622 283.121 834.471 289.945 812.092C291.143 808.187 292.691 804.397 294.569 800.769C283.715 792.324 276.232 780.277 273.47 766.801C270.092 750.25 273.249 731.964 282.358 714.637C264.972 714.499 248.182 708.273 234.905 697.038C226.2 689.384 219.476 679.736 215.306 668.918C187.201 679.518 153.314 672.507 133.474 650.583C132.223 649.198 131.04 647.765 129.926 646.282C123.912 650.333 117.308 653.43 110.348 655.463C93.7384 660.329 71.2002 658.479 58.3231 643.46C57.1696 642.108 56.1446 640.651 55.2612 639.109C48.3296 646.838 39.3236 652.41 29.3156 655.163C28.7496 655.311 28.148 655.228 27.6428 654.933C27.1377 654.637 26.7706 654.153 26.6222 653.587C26.4738 653.02 26.5563 652.418 26.8515 651.913C27.1468 651.408 27.6307 651.04 28.1966 650.892C37.9667 648.191 46.6888 642.592 53.2131 634.831C50.5636 627.98 50.0895 620.478 51.8554 613.349C52.7434 609.201 54.6233 605.331 57.3344 602.071C60.0455 598.81 63.5068 596.256 67.4212 594.628C67.7394 594.506 68.0815 594.459 68.4209 594.491C68.7602 594.524 69.0875 594.634 69.3769 594.815C69.6663 594.995 69.9099 595.24 70.0889 595.53C70.2678 595.82 70.377 596.148 70.408 596.488C71.4293 610.55 67.1104 624.478 58.3143 635.49C59.2213 637.32 60.3492 639.031 61.6724 640.586C73.2671 654.114 93.8494 655.68 109.113 651.227C115.612 649.326 121.78 646.439 127.403 642.666C110.587 616.708 113.042 579.118 134.473 557.472C135.623 556.149 137.104 555.155 138.764 554.593C138.946 554.544 139.128 554.501 139.311 554.466ZM130.979 640.086C139.307 633.72 145.876 625.335 150.067 615.724C157.505 598.346 155.643 577.463 145.327 562.527C144.624 561.508 142.239 558.176 139.947 558.847C139.041 559.229 138.24 559.821 137.609 560.575C117.625 580.762 115.331 615.809 130.979 640.086ZM56.4432 630.686C62.8532 621.782 66.2685 611.068 66.1958 600.093C63.6403 601.682 61.4319 603.771 59.7029 606.234C57.9738 608.698 56.7597 611.486 56.1334 614.43C54.8036 619.781 54.9109 625.389 56.4432 630.686ZM218.103 662.976C220.383 661.928 222.603 660.753 224.752 659.456C243.437 648.162 259.081 623.577 251.261 600.262C250.322 597.46 247.537 590.817 241.97 589.662C235.82 588.371 230.259 594.415 227.492 598.13C213.986 616.24 211.232 641.319 218.103 662.976ZM298.423 708.59C311.756 706.211 324.078 699.914 333.821 690.503C336.552 687.789 339.764 684.116 340.352 679.784C340.831 676.257 338.786 671.961 335.332 671.491C332.977 671.476 330.673 672.183 328.731 673.517C313.102 682.172 299.894 694.612 290.315 709.698C293.035 709.472 295.742 709.102 298.423 708.59ZM328.213 805.242C333.587 804.212 338.691 802.09 343.211 799.007C346.799 796.687 349.885 793.67 352.287 790.136C354.689 786.601 356.358 782.621 357.195 778.429C357.644 775.87 358.278 769.52 354.452 765.815C348.42 759.976 337.18 765.712 333.881 767.609C319.11 776.096 307.587 787.104 300.333 799.454C304.663 802.275 309.485 804.255 314.546 805.292C319.063 806.15 323.703 806.133 328.213 805.242Z" fill="#DBD8FF" fill-opacity="0.6"/>
<path d="M0 319C31.3333 294.333 66 189 208 177C482.59 153.796 514 292.333 802 271C1061.2 251.8 1162.5 69 1132 -50" stroke="#FDFDFD" stroke-opacity="0.9" stroke-width="2"/>
<path d="M0 332C31.3333 307.333 66 202 208 190C482.59 166.796 514 305.333 802 284C1061.2 264.8 1168.5 79 1138 -40" stroke="#FDFDFD" stroke-opacity="0.9" stroke-width="2"/>
<path d="M0 348C31.3333 323.333 66 218 208 206C482.59 182.796 514 321.333 802 300C1061.2 280.8 1175.5 94 1145 -25" stroke="#FDFDFD" stroke-opacity="0.9" stroke-width="2"/>
<path d="M0 371C31.3333 346.333 66 241 208 229C482.59 205.796 514 344.333 802 323C1061.2 303.8 1182.5 110 1152 -9" stroke="#FDFDFD" stroke-opacity="0.9" stroke-width="2"/>
<path d="M0 402C31.3333 377.333 66 272 208 260C482.59 236.796 514 375.333 802 354C1061.2 334.8 1189.5 122 1159 3" stroke="#FDFDFD" stroke-opacity="0.9" stroke-width="2"/>
<path d="M0 444C31.3333 419.333 66 314 208 302C482.59 278.796 514 417.333 802 396C1061.2 376.8 1195.5 119 1165 0" stroke="#FDFDFD" stroke-opacity="0.9" stroke-width="2"/>
<path d="M0 508C31.3333 483.333 66 378 208 366C482.59 342.796 514 481.333 802 460C1061.2 440.8 1201.5 120 1171 1" stroke="#FDFDFD" stroke-opacity="0.9" stroke-width="2"/>
<path d="M0 598C31.3333 573.333 66 468 208 456C482.59 432.796 514 571.333 802 550C1061.2 530.8 1209.5 122 1179 3" stroke="#FDFDFD" stroke-opacity="0.9" stroke-width="2"/>
<path d="M1296.3 -46.1914C1295.28 -47.3042 1294.2 -48.3867 1293.08 -49.4387C1288.51 -53.687 1282.9 -57.3893 1276.3 -58.9058C1251.05 -64.7088 1242.43 -46.1318 1230.14 -33.7079C1221.27 -24.5744 1209.86 -17.3879 1196.91 -12.7723C1183.96 -8.15669 1169.86 -6.25155 1155.83 -7.22237C1145.88 -7.86047 1134.94 -8.26864 1127.02 -3.24989C1118.62 2.07427 1116.42 12.2044 1119.04 20.7355C1121.66 29.2666 1128.18 36.5631 1134.73 43.4952C1147 56.4871 1161.05 69.74 1180.14 74.2361C1193.21 77.3117 1207.15 75.8793 1220.43 73.6289C1270.48 65.1476 1332.57 38.48 1314.94 -11.3196C1310.59 -23.5836 1305.57 -36.0891 1296.3 -46.1914Z" fill="#DBD8FF" fill-opacity="0.6"/>
</g>
<defs>
<clipPath id="clip0_1416_2">
<rect width="1280" height="832" fill="white"/>
</clipPath>
</defs>
</svg>
