<svg width="1520" height="988" viewBox="0 0 1520 988" fill="none" xmlns="http://www.w3.org/2000/svg">
<g clip-path="url(#clip0_1502_6)">
<rect width="1520" height="988" fill="black"/>
<mask id="mask0_1502_6" style="mask-type:luminance" maskUnits="userSpaceOnUse" x="0" y="0" width="1520" height="988">
<path d="M1520 0H0V988H1520V0Z" fill="white"/>
</mask>
<g mask="url(#mask0_1502_6)">
<path d="M1520 0H0V988H1520V0Z" fill="#0D1A3E"/>
<path d="M382.486 15.864C382.722 15.8738 382.948 15.9646 383.125 16.1212C383.302 16.2779 383.419 16.4906 383.457 16.7237C384.874 25.3924 382.443 35.111 376.024 46.4349C354.304 84.7522 309.379 107.162 269.196 99.7062C257.745 97.5827 247.259 91.7062 237.118 86.0227C227.742 80.7673 218.046 75.3334 207.52 72.7887C187.323 67.9063 167.932 69.9831 152.919 78.6388C134.549 89.2288 121.484 109.962 112.978 142.024C111.429 147.862 110.014 153.884 108.645 159.708C104.125 178.952 99.4499 198.851 89.0843 215.989C74.1836 240.623 46.7595 259.082 15.7237 265.365C15.5917 265.392 15.4557 265.392 15.3234 265.366C15.1911 265.34 15.0654 265.289 14.953 265.214C14.8407 265.14 14.7443 265.044 14.6691 264.933C14.5938 264.82 14.5412 264.695 14.5145 264.563C14.4878 264.43 14.4874 264.295 14.5132 264.162C14.5391 264.03 14.5908 263.904 14.6653 263.791C14.7398 263.68 14.8357 263.584 14.9476 263.508C15.0593 263.433 15.1848 263.381 15.3169 263.353C45.8 257.182 72.7198 239.078 87.3277 214.926C97.5258 198.066 102.163 178.327 106.648 159.238C108.019 153.399 109.437 147.363 110.994 141.497C119.648 108.88 133.027 87.7373 151.894 76.8613C167.364 67.9422 187.292 65.7877 208.002 70.7941C218.802 73.4053 228.624 78.9096 238.122 84.2326C248.578 90.0918 258.453 95.6264 269.57 97.6885C308.916 104.989 352.936 83.0029 374.239 45.4226C380.416 34.5213 382.77 25.2433 381.432 17.0553C381.388 16.7867 381.452 16.5117 381.611 16.2907C381.77 16.0696 382.01 15.9208 382.278 15.8767C382.347 15.8657 382.417 15.8614 382.486 15.864Z" fill="#3A3C51"/>
<path d="M362.861 -1.86741C362.887 -1.86646 362.912 -1.8648 362.937 -1.86183C363.208 -1.83118 363.455 -1.69437 363.625 -1.48148C363.794 -1.26859 363.873 -0.997052 363.842 -0.726584C361.347 20.6788 350.625 40.2748 333.943 53.9171C317.172 67.4509 295.796 73.9318 274.333 71.9895C257.861 70.4443 242.219 63.9468 227.093 57.6635C210.91 50.9411 194.175 43.9896 176.635 43.2874L176.611 43.2865C166.587 42.9643 156.599 44.6495 147.236 48.2426C137.872 51.8359 129.321 57.2648 122.086 64.2102C105.115 80.7486 97.7337 102.981 89.9184 126.519C84.8416 141.808 79.5917 157.619 71.4701 171.55C55.7159 198.086 30.0742 217.284 0.17629 224.928C0.0454838 224.961 -0.0904388 224.967 -0.22365 224.947C-0.356862 224.927 -0.484771 224.881 -0.600108 224.81C-0.715444 224.742 -0.815921 224.649 -0.895823 224.541C-0.975725 224.433 -1.03341 224.309 -1.06571 224.179C-1.09802 224.048 -1.10434 223.912 -1.08412 223.779C-1.06391 223.646 -1.01766 223.517 -0.948007 223.402C-0.878356 223.287 -0.786582 223.186 -0.678095 223.106C-0.569608 223.027 -0.446505 222.969 -0.315699 222.937C29.0447 215.429 54.2254 196.575 69.6965 170.517C77.7109 156.77 82.9265 141.062 87.9701 125.872C95.5188 103.136 103.325 79.6273 120.653 62.74C128.09 55.6021 136.879 50.0229 146.502 46.3301C156.126 42.6373 166.39 40.9053 176.693 41.2361L176.717 41.2371C194.624 41.9538 211.531 48.9771 227.88 55.7683C242.865 61.9937 258.362 68.4308 274.525 69.9463C295.453 71.8386 316.296 65.5193 332.649 52.3244C348.916 39.0226 359.371 19.9151 361.803 -0.956722C361.831 -1.21415 361.957 -1.4511 362.153 -1.62002C362.349 -1.78893 362.602 -1.87732 362.861 -1.86741Z" fill="#3A3C51"/>
<path d="M331.237 -13.631C331.457 -13.6218 331.669 -13.5419 331.841 -13.4031C332.012 -13.2642 332.134 -13.0736 332.189 -12.8597C337.832 9.23153 324.406 30.8459 309.961 43.7073C301.739 51.0291 285.001 63.0338 265.345 61.0528C248.144 59.3336 234.7 47.7432 221.7 36.5347C212.53 28.6289 203.048 20.4541 192.224 15.624C174.415 7.67899 152.207 8.87386 132.818 18.8215C115.917 27.4932 101.112 42.5002 90.003 62.2193C84.6331 71.7518 80.2774 82.0535 76.0651 92.0158C70.7978 104.473 65.3511 117.355 57.8549 128.912C40.7536 155.109 14.0074 173.502 -16.575 180.095C-16.8409 180.151 -17.1182 180.1 -17.3459 179.951C-17.5738 179.803 -17.7334 179.57 -17.79 179.304C-17.8466 179.038 -17.7954 178.762 -17.6478 178.532C-17.5002 178.304 -17.2681 178.144 -17.0024 178.087C13.048 171.609 39.329 153.536 56.1327 127.794C63.5308 116.39 68.9418 103.592 74.1745 91.2167C78.4092 81.2017 82.7875 70.8454 88.2149 61.2121C99.5214 41.1411 114.621 25.851 131.881 16.995C151.817 6.76616 174.688 5.5523 193.06 13.7503C204.161 18.7029 213.758 26.9779 223.041 34.9804C236.386 46.4873 248.993 57.3554 265.549 59.0108C284.44 60.9033 300.625 49.2724 308.597 42.174C322.59 29.7139 335.615 8.84724 330.201 -12.3515C330.133 -12.6151 330.174 -12.8947 330.313 -13.1289C330.452 -13.363 330.677 -13.5324 330.941 -13.5999C331.037 -13.6246 331.137 -13.635 331.237 -13.631Z" fill="#3A3C51"/>
<path d="M1103.07 852.758C1099 797.067 1105.78 737.735 1138.75 692.668C1196.42 613.853 1312.4 605.497 1407.16 629.07C1501.94 652.643 1591.19 700.383 1688.54 708.095C1770.9 714.617 1852.45 691.913 1931.94 669.427C1910.64 707.075 1886.38 742.97 1859.39 776.775C1786 868.686 1693.65 943.653 1597.91 1011.98C1518.41 1068.73 1434.93 1121.98 1342.36 1153.21C1257.98 1181.68 1187.77 1173.79 1101.44 1176.44C1067.62 1177.47 1031.35 1174.46 1004.62 1153.7C1040.41 1112.53 1089.64 1061.06 1111.6 1010.79C1132.08 963.924 1106.77 903.323 1103.07 852.758Z" fill="#676589" fill-opacity="0.27"/>
<path d="M1142.11 746.226C1158.01 748.722 1172.31 757.878 1180.35 770.718C1192.9 790.754 1195.08 810.727 1186.82 830.082C1162.77 886.465 1059.85 919.385 1025.7 926.475C1001.2 931.56 966.938 928.474 944.23 904.562C937.801 897.791 934.444 891.033 934.254 884.483C934.027 876.795 938.196 870.443 941.734 866.47C956.793 849.543 980.201 847.91 1002.84 846.332C1022.78 844.94 1043.4 843.507 1057.64 831.465C1068.31 822.444 1073.86 809.028 1079.72 794.822C1085.61 780.562 1091.7 765.816 1103.51 755.876C1105.06 754.569 1106.71 753.379 1108.44 752.315C1117.88 746.511 1129.83 744.299 1142.11 746.226ZM1003.25 852.213C980.802 853.778 959.6 855.253 946.138 870.389C943.312 873.565 939.978 878.559 940.145 884.311C940.294 889.368 943.107 894.815 948.506 900.504C969.545 922.659 1001.56 925.465 1024.5 920.702C1066.47 911.99 1160.05 877.819 1181.4 827.769C1188.85 810.293 1186.82 792.153 1175.35 773.85C1168.2 762.433 1155.43 754.284 1141.19 752.049C1128.35 750.034 1116 753.08 1107.31 760.386C1096.6 769.399 1091.05 782.84 1085.17 797.071C1079.29 811.303 1073.22 826.022 1061.45 835.968C1059.5 837.61 1057.44 839.103 1055.27 840.435C1040.33 849.627 1021.51 850.939 1003.25 852.213Z" fill="#3A3E62" fill-opacity="0.3"/>
<path d="M1535.48 288.056C1551.39 290.551 1565.68 299.707 1573.73 312.548C1586.29 332.583 1588.46 352.557 1580.19 371.912C1556.15 428.295 1453.24 461.215 1419.09 468.305C1394.59 473.39 1360.32 470.304 1337.61 446.392C1331.18 439.621 1327.83 432.863 1327.64 426.313C1327.41 418.625 1331.58 412.273 1335.12 408.3C1350.18 391.373 1373.58 389.74 1396.21 388.162C1416.16 386.77 1436.78 385.337 1451.02 373.294C1461.69 364.274 1467.24 350.858 1473.11 336.652C1479 322.392 1485.08 307.646 1496.89 297.705C1498.45 296.399 1500.1 295.209 1501.82 294.145C1511.26 288.34 1523.21 286.128 1535.48 288.056ZM1396.63 394.041C1374.19 395.606 1352.98 397.082 1339.52 412.218C1336.7 415.395 1333.36 420.388 1333.53 426.141C1333.67 431.198 1336.48 436.645 1341.89 442.333C1362.93 464.488 1394.94 467.295 1417.89 462.532C1459.85 453.82 1553.43 419.649 1574.78 369.599C1582.24 352.123 1580.21 333.982 1568.73 315.678C1561.59 304.263 1548.81 296.114 1534.57 293.879C1521.72 291.864 1509.37 294.91 1500.69 302.215C1489.98 311.229 1484.42 324.669 1478.54 338.901C1472.68 353.133 1466.6 367.851 1454.83 377.797C1452.88 379.44 1450.82 380.932 1448.64 382.265C1433.7 391.457 1414.89 392.768 1396.63 394.041Z" fill="#3A3E62" fill-opacity="0.3"/>
<path d="M324.728 757.999C382.834 715.406 460.772 697.408 529.219 719.808C742.33 789.554 675.038 1108.79 473.923 1139.06C393.794 1151.12 272.346 1110.93 222.568 1043.77C155.895 953.811 247.317 814.745 324.728 757.999Z" fill="#6A76A1" fill-opacity="0.2"/>
</g>
<path d="M-82.6781 377.419C-40.304 346.393 124 308.547 104 408.546C26.1219 538 172.784 632.947 26.1219 654.996C-32.3119 663.781 -120.877 634.503 -157.178 585.582C-205.799 520.055 -139.13 418.755 -82.6781 377.419Z" fill="#414964" fill-opacity="0.2"/>
</g>
<defs>
<clipPath id="clip0_1502_6">
<rect width="1520" height="988" fill="white"/>
</clipPath>
</defs>
</svg>
