<svg xmlns="http://www.w3.org/2000/svg" width="62" height="62" viewBox="0 0 62 62">
  <g fill="#6B60F1" fill-rule="evenodd" transform="translate(1 1)">
    <circle cx="30" cy="30" r="29.736" stroke-linecap="round" stroke-linejoin="round" stroke-width="2"/>
    <g fill="#FFFFFF" fill-rule="nonzero" transform="translate(23 8)">
      <path d="M9.49010426,8 C9.98891266,8.20315218 10.4405464,8.4981084 10.8321778,8.85866724 C10.8940446,8.91451916 10.9645039,8.96091921 11.0220744,9.02020817 C11.0710522,9.07090453 11.1080004,9.13191201 11.1552597,9.18432689 C11.869305,9.98773525 12.3126833,11.0403291 12.3126833,12.202049 L12.2763757,15.9068929 L-1.84297022e-14,15.9068929 L0.0364316422,12.1384637 C0.0820732616,10.3578238 1.1110068,8.83971971 2.60555442,8.1247101 C3.48355456,9.19584561 4.67313649,9.86342893 5.98568224,9.86342893 C7.36118203,9.86342893 8.60163963,9.15203528 9.49010426,8 Z"/>
      <path d="M5.88263185,8.73710526 C8.03236869,8.73710526 9.7660529,6.51789474 9.7660529,3.74447368 C9.7660529,0.970263158 8.03236869,0 5.88263185,0 C3.73289501,0 2.00000027,1.04052632 2.00000027,3.74447368 C1.9992108,6.45 3.73289501,8.73710526 5.88263185,8.73710526 Z"/>
    </g>
    <g fill="#FFFFFF" fill-rule="nonzero" transform="translate(36 27)">
      <path d="M9.49010426,8 C9.98891266,8.20315218 10.4405464,8.4981084 10.8321778,8.85866724 C10.8940446,8.91451916 10.9645039,8.96091921 11.0220744,9.02020817 C11.0710522,9.07090453 11.1080004,9.13191201 11.1552597,9.18432689 C11.869305,9.98773525 12.3126833,11.0403291 12.3126833,12.202049 L12.2763757,15.9068929 L-1.84297022e-14,15.9068929 L0.0364316422,12.1384637 C0.0820732616,10.3578238 1.1110068,8.83971971 2.60555442,8.1247101 C3.48355456,9.19584561 4.67313649,9.86342893 5.98568224,9.86342893 C7.36118203,9.86342893 8.60163963,9.15203528 9.49010426,8 Z"/>
      <path d="M5.88263185,8.73710526 C8.03236869,8.73710526 9.7660529,6.51789474 9.7660529,3.74447368 C9.7660529,0.970263158 8.03236869,0 5.88263185,0 C3.73289501,0 2.00000027,1.04052632 2.00000027,3.74447368 C1.9992108,6.45 3.73289501,8.73710526 5.88263185,8.73710526 Z"/>
    </g>
    <g fill="#FFFFFF" fill-rule="nonzero" transform="translate(12 27)">
      <path d="M9.49010426,8 C9.98891266,8.20315218 10.4405464,8.4981084 10.8321778,8.85866724 C10.8940446,8.91451916 10.9645039,8.96091921 11.0220744,9.02020817 C11.0710522,9.07090453 11.1080004,9.13191201 11.1552597,9.18432689 C11.869305,9.98773525 12.3126833,11.0403291 12.3126833,12.202049 L12.2763757,15.9068929 L-1.84297022e-14,15.9068929 L0.0364316422,12.1384637 C0.0820732616,10.3578238 1.1110068,8.83971971 2.60555442,8.1247101 C3.48355456,9.19584561 4.67313649,9.86342893 5.98568224,9.86342893 C7.36118203,9.86342893 8.60163963,9.15203528 9.49010426,8 Z"/>
      <path d="M5.88263185,8.73710526 C8.03236869,8.73710526 9.7660529,6.51789474 9.7660529,3.74447368 C9.7660529,0.970263158 8.03236869,0 5.88263185,0 C3.73289501,0 2.00000027,1.04052632 2.00000027,3.74447368 C1.9992108,6.45 3.73289501,8.73710526 5.88263185,8.73710526 Z"/>
    </g>
  </g>
</svg>
