<svg xmlns="http://www.w3.org/2000/svg" width="60" height="60" viewBox="0 0 60 60">
  <g fill="none" fill-rule="evenodd">
    <circle cx="30" cy="30" r="29.736" fill="#6B60F1"/>
    <g transform="translate(10 10)">
      <circle cx="10" cy="10" r="10" fill="#FFF"/>
      <path fill="#6B60F1" fill-rule="nonzero" d="M7.0421875,12.53125 L8.8,12.53125 L8.8,11.40625 L7.0421875,11.40625 C6.30260047,11.40625 5.9328125,11.1614608 5.9328125,10.671875 C5.9328125,10.1927059 6.30260047,9.953125 7.0421875,9.953125 L8.034375,9.953125 L5.6984375,6.2890625 C5.51093656,5.99739438 5.38854195,5.78906313 5.33125,5.6640625 C5.27395805,5.53906187 5.2453125,5.40104242 5.2453125,5.25 C5.2453125,4.97916531 5.32734293,4.76171957 5.49140625,4.59765625 C5.65546957,4.43359293 5.86770703,4.3515625 6.128125,4.3515625 C6.39375133,4.3515625 6.60859293,4.43229086 6.77265625,4.59375 C6.93671957,4.75520914 7.12812391,5.0156232 7.346875,5.375 L9.8703125,9.328125 L12.128125,5.6015625 C12.2114588,5.45572844 12.2999995,5.30338621 12.39375,5.14453125 C12.4875005,4.98567629 12.5786454,4.85026098 12.6671875,4.73828125 C12.7557296,4.62630152 12.8664056,4.53385453 12.9992188,4.4609375 C13.1320319,4.38802047 13.2895824,4.3515625 13.471875,4.3515625 C13.732293,4.3515625 13.9445304,4.43098879 14.1085938,4.58984375 C14.2726571,4.74869871 14.3546875,4.94270719 14.3546875,5.171875 C14.3546875,5.35416758 14.3221357,5.52083258 14.2570313,5.671875 C14.1919268,5.82291742 14.0890632,6.01301969 13.9484375,6.2421875 L11.6984375,9.953125 L12.690625,9.953125 C13.4250037,9.953125 13.7921875,10.1927059 13.7921875,10.671875 C13.7921875,11.1614608 13.4250037,11.40625 12.690625,11.40625 L10.925,11.40625 L10.925,12.53125 L12.690625,12.53125 C13.4250037,12.53125 13.7921875,12.7760392 13.7921875,13.265625 C13.7921875,13.7447941 13.4250037,13.984375 12.690625,13.984375 L10.925,13.984375 L10.925,14.609375 C10.925,15.666672 10.573441,16.1953125 9.8703125,16.1953125 C9.15676727,16.1953125 8.8,15.666672 8.8,14.609375 L8.8,13.984375 L7.0421875,13.984375 C6.30260047,13.984375 5.9328125,13.7447941 5.9328125,13.265625 C5.9328125,12.7760392 6.30260047,12.53125 7.0421875,12.53125 Z"/>
    </g>
    <g transform="translate(30 12)">
      <circle cx="10" cy="11" r="11" fill="#FFF" stroke="#6B60F1" stroke-width="2"/>
      <path fill="#6B60F1" fill-rule="nonzero" d="M9.26865234,9.76660156 L10.5782227,9.76660156 C11.0586938,9.76660156 11.4307604,9.81494092 11.6944336,9.91162109 C11.9581068,10.0083013 12.0899414,10.2353498 12.0899414,10.5927734 C12.0899414,10.8388684 12.0020517,11.0380852 11.8262695,11.1904297 C11.6504874,11.3427742 11.4219741,11.4189453 11.1407227,11.4189453 L9.58505859,11.4189453 L9.58505859,11.5683594 C9.58505859,12.1601592 9.45175915,12.7036108 9.18515625,13.1987305 C8.91855335,13.6938501 8.45420253,14.3134728 7.79208984,15.0576172 C7.98545019,15.010742 8.1773428,14.9667971 8.36777344,14.9257812 C8.55820408,14.8847654 8.77206913,14.8481447 9.009375,14.815918 C9.24668087,14.7836912 9.50595563,14.7675781 9.78720703,14.7675781 C10.1797871,14.7675781 10.7276332,14.8129878 11.4307617,14.9038086 C12.1338902,14.9946294 12.5997059,15.0400391 12.8282227,15.0400391 C13.1622087,15.0400391 13.5210918,14.9799811 13.9048828,14.8598633 C14.2886738,14.7397455 14.5303706,14.6796875 14.6299805,14.6796875 C14.8936537,14.6796875 15.1280263,14.7851552 15.3331055,14.9960938 C15.5381846,15.2070323 15.6407227,15.4560533 15.6407227,15.7431641 C15.6407227,16.2294946 15.3667996,16.603026 14.8189453,16.8637695 C14.271091,17.124513 13.6866242,17.2548828 13.0655273,17.2548828 C12.6846661,17.2548828 11.6036222,17.0498067 9.82236328,16.6396484 C9.77548805,16.6279296 9.69638728,16.6044924 9.58505859,16.5693359 C9.47372991,16.5341795 9.33603598,16.5048829 9.17197266,16.4814453 C9.00790934,16.4580077 8.81162224,16.4462891 8.58310547,16.4462891 C8.33701049,16.4462891 8.12021578,16.481445 7.93271484,16.5517578 C7.74521391,16.6220707 7.42148667,16.7509756 6.96152344,16.9384766 C6.5015602,17.1259775 6.1895516,17.2197266 6.02548828,17.2197266 C5.80283092,17.2197266 5.58457138,17.1186534 5.37070313,16.9165039 C5.15683487,16.7143545 5.04990234,16.4492204 5.04990234,16.1210938 C5.04990234,15.9980463 5.0879879,15.8691413 5.16416016,15.734375 C5.24033241,15.5996087 5.3604484,15.4458016 5.52451172,15.2729492 C5.68857504,15.1000968 5.93466633,14.8730483 6.26279297,14.5917969 C6.56162259,14.3398425 6.81210836,13.9868187 7.01425781,13.5327148 C7.21640726,13.078611 7.31748047,12.6318381 7.31748047,12.1923828 C7.31748047,12.0400383 7.28818389,11.7822284 7.22958984,11.4189453 L6.49130859,11.4189453 C6.05771268,11.4189453 5.73105579,11.3662115 5.51132813,11.2607422 C5.29160046,11.1552729 5.18173828,10.9443375 5.18173828,10.6279297 C5.18173828,10.0537081 5.55380487,9.76660156 6.29794922,9.76660156 L6.81650391,9.76660156 C6.5293931,8.85253449 6.38583984,8.13183857 6.38583984,7.60449219 C6.38583984,6.88378546 6.55576002,6.24219031 6.89560547,5.6796875 C7.23545092,5.11718469 7.72177418,4.67627113 8.35458984,4.35693359 C8.98740551,4.03759606 9.71103108,3.87792969 10.5254883,3.87792969 C11.246195,3.87792969 11.8643529,3.96728426 12.3799805,4.14599609 C12.895608,4.32470792 13.3526347,4.61913857 13.7510742,5.02929688 C14.4307651,5.73828479 14.7706055,6.49413661 14.7706055,7.296875 C14.7706055,7.58398581 14.6592785,7.83886607 14.4366211,8.06152344 C14.2139637,8.2841808 13.9415055,8.39550781 13.6192383,8.39550781 C13.0508761,8.39550781 12.6729502,8.07910473 12.4854492,7.44628906 C12.3155265,6.83691102 12.0826187,6.38720848 11.7867188,6.09716797 C11.4908188,5.80712746 11.0938501,5.66210938 10.5958008,5.66210938 C10.0567356,5.66210938 9.62168134,5.83642404 9.290625,6.18505859 C8.95956866,6.53369315 8.79404297,6.98339568 8.79404297,7.53417969 C8.79404297,7.86816573 8.82919887,8.18017433 8.89951172,8.47021484 C8.96982457,8.76025536 9.09287021,9.19237994 9.26865234,9.76660156 Z"/>
    </g>
    <g transform="translate(17 27)">
      <circle cx="13" cy="13" r="14" fill="#FFF" stroke="#6B60F1" stroke-width="2"/>
      <path fill="#6B60F1" fill-rule="nonzero" d="M13.8155273,4.99902344 L13.8155273,5.94824219 C14.4424836,6.01269563 14.9800759,6.1416006 15.4283203,6.33496094 C15.8765647,6.52832128 16.2676741,6.8212871 16.6016602,7.21386719 C16.8653333,7.51269681 17.0689446,7.82031092 17.2125,8.13671875 C17.3560554,8.45312658 17.427832,8.74316274 17.427832,9.00683594 C17.427832,9.29980615 17.3208995,9.55322159 17.1070312,9.76708984 C16.893163,9.9809581 16.6338882,10.0878906 16.3291992,10.0878906 C15.7549776,10.0878906 15.382911,9.77734686 15.2129883,9.15625 C15.0196279,8.42382446 14.5538123,7.9375012 13.8155273,7.69726562 L13.8155273,11.3535156 C14.5420935,11.5527354 15.120701,11.7343742 15.5513672,11.8984375 C15.9820334,12.0625008 16.3672835,12.2998031 16.7071289,12.6103516 C17.070412,12.9326188 17.3501943,13.3178689 17.5464844,13.7661133 C17.7427744,14.2143577 17.840918,14.7050755 17.840918,15.2382812 C17.840918,15.9062533 17.6841813,16.5317354 17.3707031,17.1147461 C17.057225,17.6977568 16.5958038,18.1738263 15.9864258,18.5429688 C15.3770477,18.9121112 14.6534222,19.1318356 13.8155273,19.2021484 L13.8155273,21.390625 C13.8155273,21.7363299 13.7818363,21.9882805 13.7144531,22.1464844 C13.64707,22.3046883 13.4991222,22.3837891 13.2706055,22.3837891 C13.0596669,22.3837891 12.9117192,22.3193366 12.8267578,22.1904297 C12.7417965,22.0615228 12.6993164,21.862306 12.6993164,21.5927734 L12.6993164,19.2197266 C12.0137661,19.1435543 11.414651,18.9824231 10.9019531,18.7363281 C10.3892552,18.4902331 9.96152515,18.1840839 9.61875,17.8178711 C9.27597485,17.4516583 9.02255941,17.0708028 8.85849609,16.675293 C8.69443277,16.2797832 8.61240234,15.8916035 8.61240234,15.5107422 C8.61240234,15.2294908 8.72226453,14.9760753 8.94199219,14.7504883 C9.16171985,14.5249012 9.43564289,14.4121094 9.76376953,14.4121094 C10.0274427,14.4121094 10.2500967,14.4736322 10.4317383,14.5966797 C10.6133798,14.7197272 10.7393551,14.892577 10.809668,15.1152344 C10.9678719,15.5957055 11.1055658,15.9633776 11.2227539,16.2182617 C11.339942,16.4731458 11.5171863,16.7060536 11.7544922,16.9169922 C11.9917981,17.1279307 12.3067363,17.2890619 12.6993164,17.4003906 L12.6993164,13.3134766 C11.9141562,13.0966786 11.2579128,12.8549818 10.7305664,12.5883789 C10.20322,12.321776 9.77548992,11.9423853 9.44736328,11.4501953 C9.11923664,10.9580054 8.95517578,10.3251992 8.95517578,9.55175781 C8.95517578,8.54394027 9.27597335,7.71777666 9.91757813,7.07324219 C10.5591829,6.42870771 11.4864197,6.05371146 12.6993164,5.94824219 L12.6993164,5.01660156 C12.6993164,4.5244116 12.8838849,4.27832031 13.2530273,4.27832031 C13.6280292,4.27832031 13.8155273,4.51855229 13.8155273,4.99902344 Z M12.6993164,11.0283203 L12.6993164,7.66210938 C12.2071264,7.80859448 11.8233412,8.00195192 11.5479492,8.2421875 C11.2725572,8.48242308 11.1348633,8.84570069 11.1348633,9.33203125 C11.1348633,9.79492419 11.2637682,10.1450183 11.521582,10.3823242 C11.7793958,10.6196301 12.17197,10.83496 12.6993164,11.0283203 Z M13.8155273,13.6386719 L13.8155273,17.4882812 C14.4073272,17.3710932 14.8643539,17.1337908 15.1866211,16.7763672 C15.5088883,16.4189435 15.6700195,16.0029321 15.6700195,15.5283203 C15.6700195,15.0185521 15.5132828,14.6245131 15.1998047,14.3461914 C14.8863266,14.0678697 14.4249054,13.8320322 13.8155273,13.6386719 Z"/>
    </g>
  </g>
</svg>
