<svg xmlns="http://www.w3.org/2000/svg" width="60" height="60" viewBox="0 0 60 60">
  <g fill="none" fill-rule="evenodd">
    <circle cx="29.736" cy="29.736" r="29.736" fill="#6B60F1"/>
    <path fill="#FFF" fill-rule="nonzero" d="M33.75,11 L45,22.3999992 L45,45.1999975 C45,47.2899974 43.3125,49 41.25,49 L41.25,49 L18.73125,49 C16.66875,49 15,47.2899974 15,45.1999975 L15,45.1999975 L15.01875,14.7999997 C15.01875,12.7099999 16.6875,11 18.75,11 L18.75,11 L33.75,11 Z M22.1711159,26 L18,26 L18,36 L20.4492792,36 L20.4492792,33.0686071 L22.0242926,33.0686071 C24.1665777,33.0686071 25.6414842,31.6756757 25.6414842,29.5412335 C25.6414842,27.3929314 24.2399893,26 22.1711159,26 Z M30.6401495,26 L26.7293113,26 L26.7293113,36 L30.6401495,36 C33.5432461,36 35.258409,34.1358281 35.258409,30.9410949 C35.258409,27.7532918 33.5499199,26 30.6401495,26 Z M43,26 L36.4463428,26 L36.4463428,36 L38.895622,36 L38.895622,32.2716563 L42.626268,32.2716563 L42.626268,30.3243243 L38.895622,30.3243243 L38.895622,28.0512821 L43,28.0512821 L43,26 Z M30.3198078,28.0512821 C31.868126,28.0512821 32.769087,29.0699931 32.769087,30.9480249 C32.769087,32.9438669 31.9148425,33.9487179 30.3198078,33.9487179 L29.1785905,33.9487179 L29.1785905,28.0512821 L30.3198078,28.0512821 Z M21.5237587,27.9473319 C22.5515216,27.9473319 23.1655099,28.5086625 23.1655099,29.5481635 C23.1655099,30.5945946 22.5515216,31.1559252 21.5104111,31.1559252 L20.4492792,31.1559252 L20.4492792,27.9473319 L21.5237587,27.9473319 Z"/>
  </g>
</svg>
