<svg xmlns="http://www.w3.org/2000/svg" width="60" height="60" viewBox="0 0 60 60">
  <g fill="none" fill-rule="evenodd">
    <circle cx="29.736" cy="29.736" r="29.736" fill="#6B60F1"/>
    <g fill="#FFF" transform="translate(14 14)">
      <g fill-rule="nonzero" transform="translate(12)">
        <path d="M6.03481254 0C3.13267454 0 .771654958 2.36101958.771654958 5.26315758.771654958 8.16502141 3.13267454 10.5260411 6.03481254 10.5260411 8.93667637 10.5260411 11.297696 8.16502141 11.297696 5.26315758 11.297696 2.36101958 8.93667637 0 6.03481254 0zM13.402959 18.9470932C15.724779 18.9470932 17.6134851 17.058113 17.6134851 14.7365671 17.6134851 12.4150212 15.724779 10.5260411 13.402959 10.5260411 11.0814131 10.5260411 9.19243298 12.4150212 9.19243298 14.7365671 9.19243298 17.058113 11.0814131 18.9470932 13.402959 18.9470932z"/>
      </g>
      <g transform="translate(0 18)">
        <path fill-rule="nonzero" d="M26.8833423,4.02194351 C24.6916522,5.23160263 21.677227,6.35007864 18.6710412,6.82159412 C15.9964103,7.24103635 10.9646415,6.22945329 10.9646415,5.03473503 C10.9646415,4.58200547 15.3776836,6.15024484 18.0471511,5.43802797 C20.0941566,4.89191813 19.8035792,2.97707313 18.6901567,2.72450694 C17.5832159,2.47325906 11.0980105,0.0974450668 8.327912,0.0154901403 C7.02300501,-0.0230704217 3.80138541,0.469318293 2.24248406,0.72320279 C1.70845873,0.810101379 1.37360803,0.800543633 1.34021085,1.3116084 C1.18508973,3.68676325 0.879351714,8.54385602 0.71258118,11.0809433 C0.709179889,11.1345545 0.783664393,11.8554503 1.3785517,11.3481207 C2.02968688,10.7928926 2.942946,10.1774616 3.78765302,10.369056 C5.11288395,10.6697405 16.5778948,12.7701376 18.1593173,12.4025488 C20.4216468,11.8766531 26.825886,8.081349 28.0537817,6.90168144 C29.9569816,5.07285615 28.4775084,3.14208157 26.8833423,4.02194351 Z" transform="translate(4 1.642)"/>
        <path d="M1,0 L3,0 C4.65685425,-3.04359188e-16 6,1.34314575 6,3 L6,12 C6,13.6568542 4.65685425,15 3,15 L1,15 C0.44771525,15 6.76353751e-17,14.5522847 0,14 L0,1 C-6.76353751e-17,0.44771525 0.44771525,1.01453063e-16 1,0 Z"/>
      </g>
    </g>
  </g>
</svg>
