<svg width="41" height="40" viewBox="0 0 41 40" fill="none" xmlns="http://www.w3.org/2000/svg">
<ellipse cx="20.5" cy="20" rx="20.5" ry="20" fill="#6B60F1"/>
<path d="M31.6856 20.0015H29.0541C28.7051 20.0015 28.3705 20.1385 28.1237 20.3822C27.877 20.626 27.7384 20.9566 27.7384 21.3014C27.7384 21.6461 27.877 21.9767 28.1237 22.2205C28.3705 22.4643 28.7051 22.6012 29.0541 22.6012V25.2009H27.4936C27.6499 24.7847 27.7323 24.345 27.737 23.9011C27.737 23.0427 27.4503 22.2083 26.9213 21.5273C26.3924 20.8463 25.6507 20.3567 24.8115 20.1346C23.9722 19.9124 23.0821 19.97 22.2794 20.2985C21.4766 20.6269 20.806 21.2079 20.3715 21.9513C20.2838 22.0992 20.2265 22.2627 20.203 22.4326C20.1795 22.6024 20.1902 22.7752 20.2346 22.9409C20.2789 23.1066 20.356 23.2621 20.4614 23.3982C20.5668 23.5344 20.6985 23.6487 20.8487 23.7344C20.999 23.8201 21.1649 23.8756 21.337 23.8977C21.5091 23.9198 21.6839 23.908 21.8513 23.8631C22.0188 23.8182 22.1756 23.741 22.3127 23.636C22.4499 23.5309 22.5646 23.4002 22.6504 23.2511C22.7659 23.0535 22.932 22.8894 23.132 22.7754C23.332 22.6613 23.5589 22.6012 23.7898 22.6012C24.1388 22.6012 24.4734 22.7382 24.7202 22.9819C24.9669 23.2257 25.1056 23.5563 25.1056 23.9011C25.1056 24.2458 24.9669 24.5764 24.7202 24.8202C24.4734 25.064 24.1388 25.2009 23.7898 25.2009C23.4409 25.2009 23.1062 25.3379 22.8595 25.5816C22.6127 25.8254 22.4741 26.156 22.4741 26.5008C22.4741 26.8455 22.6127 27.1761 22.8595 27.4199C23.1062 27.6637 23.4409 27.8006 23.7898 27.8006C24.1388 27.8006 24.4734 27.9376 24.7202 28.1813C24.9669 28.4251 25.1056 28.7557 25.1056 29.1005C25.1056 29.4452 24.9669 29.7758 24.7202 30.0196C24.4734 30.2634 24.1388 30.4003 23.7898 30.4003C23.5589 30.4003 23.332 30.3402 23.132 30.2261C22.932 30.1121 22.7659 29.948 22.6504 29.7504C22.5646 29.6014 22.4499 29.4706 22.3127 29.3655C22.1756 29.2605 22.0188 29.1833 21.8513 29.1384C21.6839 29.0935 21.5091 29.0817 21.337 29.1038C21.1649 29.1259 20.999 29.1814 20.8487 29.2671C20.6985 29.3529 20.5668 29.4671 20.4614 29.6033C20.356 29.7394 20.2789 29.8949 20.2346 30.0606C20.1902 30.2263 20.1795 30.3991 20.203 30.5689C20.2265 30.7388 20.2838 30.9023 20.3715 31.0502C20.806 31.7936 21.4766 32.3746 22.2794 32.703C23.0821 33.0315 23.9722 33.0891 24.8115 32.867C25.6507 32.6448 26.3924 32.1552 26.9213 31.4742C27.4503 30.7932 27.737 29.9588 27.737 29.1005C27.7323 28.6566 27.6499 28.2168 27.4936 27.8006H29.0528V31.7002C29.0528 32.0449 29.1914 32.3755 29.4382 32.6193C29.6849 32.8631 30.0196 33 30.3685 33C30.7175 33 31.0521 32.8631 31.2989 32.6193C31.5456 32.3755 31.6843 32.0449 31.6843 31.7002V22.6012C32.0332 22.6012 32.3679 22.4643 32.6146 22.2205C32.8614 21.9767 33 21.6461 33 21.3014C33 20.9566 32.8614 20.626 32.6146 20.3822C32.3679 20.1385 32.0332 20.0015 31.6843 20.0015H31.6856ZM15.9362 19.0175C15.9772 19.1842 16.0511 19.3411 16.1538 19.4794C16.2564 19.6177 16.3858 19.7345 16.5343 19.8232C16.6829 19.9119 16.8477 19.9706 17.0194 19.9961C17.191 20.0216 17.3661 20.0132 17.5345 19.9716C17.7028 19.9299 17.8612 19.8557 18.0004 19.7533C18.1397 19.6509 18.257 19.5223 18.3457 19.3749C18.4344 19.2275 18.4927 19.0642 18.5173 18.8945C18.5418 18.7247 18.5321 18.5518 18.4887 18.3858L16.177 9.24786C16.0153 8.60597 15.6408 8.03598 15.1133 7.62864C14.5858 7.22129 13.9355 7 13.2659 7C12.5963 7 11.946 7.22129 11.4185 7.62864C10.891 8.03598 10.5165 8.60597 10.3548 9.24786L8.04176 18.3858C7.99837 18.5518 7.98868 18.7247 8.01322 18.8945C8.03776 19.0642 8.09607 19.2275 8.18477 19.3749C8.27347 19.5223 8.39081 19.6509 8.53004 19.7533C8.66927 19.8557 8.82763 19.9299 8.99601 19.9716C9.16438 20.0132 9.33943 20.0216 9.51109 19.9961C9.68274 19.9706 9.84759 19.9119 9.99616 19.8232C10.1447 19.7345 10.2741 19.6177 10.3767 19.4794C10.4794 19.3411 10.5533 19.1842 10.5943 19.0175L11.3298 16.102H15.1981L15.9362 19.0175ZM11.989 13.5023L12.906 9.87959C12.9337 9.80759 12.9829 9.74561 13.047 9.70187C13.1112 9.65813 13.1873 9.63471 13.2652 9.63471C13.3432 9.63471 13.4193 9.65813 13.4834 9.70187C13.5476 9.74561 13.5968 9.80759 13.6244 9.87959L14.5415 13.5023H11.989ZM22.4754 13.5023H23.7911C24.14 13.5026 24.4745 13.6397 24.7211 13.8834C24.9678 14.1271 25.1065 14.4575 25.1069 14.8021V16.102C25.1069 16.4467 25.2455 16.7773 25.4923 17.0211C25.739 17.2649 26.0737 17.4018 26.4226 17.4018C26.7716 17.4018 27.1062 17.2649 27.353 17.0211C27.5997 16.7773 27.7384 16.4467 27.7384 16.102V14.8021C27.7373 13.7682 27.3211 12.7769 26.5811 12.0459C25.8411 11.3148 24.8377 10.9036 23.7911 10.9026H22.4754C22.1265 10.9026 21.7918 11.0395 21.545 11.2833C21.2983 11.5271 21.1597 11.8577 21.1597 12.2024C21.1597 12.5472 21.2983 12.8778 21.545 13.1215C21.7918 13.3653 22.1265 13.5023 22.4754 13.5023V13.5023ZM17.2125 25.2009H15.8967C15.5479 25.2006 15.2134 25.0635 14.9667 24.8198C14.7201 24.5761 14.5813 24.2457 14.581 23.9011V22.6012C14.581 22.2565 14.4424 21.9258 14.1956 21.6821C13.9489 21.4383 13.6142 21.3014 13.2652 21.3014C12.9163 21.3014 12.5816 21.4383 12.3349 21.6821C12.0881 21.9258 11.9495 22.2565 11.9495 22.6012V23.9011C11.9505 24.935 12.3667 25.9262 13.1068 26.6573C13.8468 27.3884 14.8502 27.7996 15.8967 27.8006H17.2125C17.5614 27.8006 17.8961 27.6637 18.1428 27.4199C18.3896 27.1761 18.5282 26.8455 18.5282 26.5008C18.5282 26.156 18.3896 25.8254 18.1428 25.5816C17.8961 25.3379 17.5614 25.2009 17.2125 25.2009Z" fill="white"/>
</svg>
