<svg xmlns="http://www.w3.org/2000/svg" width="62" height="62" viewBox="0 0 62 62">
  <g fill="#6B60F1" fill-rule="evenodd" transform="translate(1 1)">
    <circle cx="29.736" cy="29.736" r="29.736" stroke-linecap="round" stroke-linejoin="round" stroke-width="2"/>
    <path fill="#FFFFFF" fill-rule="nonzero" d="M22.6160994,17.2584394 L20.4823419,15.1194334 C16.9052445,17.8417992 14.5391809,22.0753777 14.316,26.8596918 L17.3084851,26.8596918 C17.531666,22.8988569 19.5675507,19.4261332 22.6160994,17.2584394 Z M42.6447674,26.8596918 L45.6372525,26.8596918 C45.4140716,22.0753777 43.048008,17.8417992 39.459161,15.1194334 L37.3202147,17.2584394 C40.3857018,19.4261332 42.4215865,22.8988569 42.6447674,26.8596918 Z M39.6992207,27.6101093 C39.6992207,23.017664 36.5148668,19.1729523 32.218664,18.1576044 L32.218664,17.1383797 C32.218664,15.8985984 31.219002,14.895 29.9765964,14.895 C28.7341909,14.895 27.7345288,15.8985984 27.7345288,17.1383797 L27.7345288,18.1576044 C23.438326,19.1729523 20.2539722,23.0189165 20.2539722,27.6101093 L20.2539722,35.835835 L17.2627992,38.8243837 L17.2627992,40.3199702 L42.6903936,40.3199702 L42.6903936,38.8243837 L39.6992207,35.835835 C39.6992207,35.835835 39.6992207,27.6101093 39.6992207,27.6101093 Z M29.9765964,44.8093539 C30.1867157,44.8093539 30.379837,44.7962922 30.5768946,44.7492942 C31.5452445,44.556173 32.355662,43.8827535 32.7275905,42.9822763 C32.8776501,42.6272863 32.9690219,42.2371074 32.9690219,41.8168688 L26.9841113,41.8168688 C26.9841113,43.4625746 28.3309503,44.8093539 29.9765964,44.8093539 Z"/>
  </g>
</svg>
