<svg xmlns="http://www.w3.org/2000/svg" width="62" height="62" viewBox="0 0 62 62">
  <g fill="none" fill-rule="evenodd" transform="translate(1 1)">
    <circle cx="30" cy="30" r="29.737" fill="#6B60F1"/>
    <g transform="translate(12.632 15.79)">
      <circle cx="17.397" cy="24.585" r="3.299" fill="#FFF"/>
      <path fill="#3493D6" stroke="#FFF" stroke-linecap="round" stroke-width="4.6" d="M4.63894737,13.9989474 C7.51184211,10.0697368 12.1555263,7.51736842 17.3952632,7.51736842 C22.6326316,7.51736842 27.2763158,10.0673684 30.1476316,13.9957895 M9.55263158,19.9957895 C10.845,16.9413158 13.8702632,14.7978947 17.3968421,14.7978947 C20.8918421,14.7978947 23.8934211,16.9010526 25.2063158,19.9136842"/>
      <path fill="#3493D6" stroke="#FFF" stroke-linecap="round" stroke-width="4.6" d="M0.165,8.42052632 C4.34131579,3.59131579 10.5126316,0.536842105 17.3976316,0.536842105 C24.2502632,0.536842105 30.3971053,3.56368421 34.5718421,8.35578947"/>
    </g>
    <path fill="#6B60F1" stroke="#FFF" stroke-linecap="round" stroke-width="5" d="M44.7118421,14.1307895 L16.6713158,41.5413158"/>
    <circle cx="30" cy="30" r="29.737" fill="#6B60F1"/>
    <g transform="translate(12.632 15.79)">
      <circle cx="17.397" cy="24.585" r="3.299" fill="#FFF"/>
      <path fill="#6B60F1" stroke="#FFF" stroke-linecap="round" stroke-width="4.6" d="M4.63894737,13.9989474 C7.51184211,10.0697368 12.1555263,7.51736842 17.3952632,7.51736842 C22.6326316,7.51736842 27.2763158,10.0673684 30.1476316,13.9957895 M9.55263158,19.9957895 C10.845,16.9413158 13.8702632,14.7978947 17.3968421,14.7978947 C20.8918421,14.7978947 23.8934211,16.9010526 25.2063158,19.9136842"/>
      <path stroke="#FFF" stroke-linecap="round" stroke-width="4.6" d="M0.165,8.42052632 C4.34131579,3.59131579 10.5126316,0.536842105 17.3976316,0.536842105 C24.2502632,0.536842105 30.3971053,3.56368421 34.5718421,8.35578947"/>
    </g>
    <path fill="#6B60F1" stroke="#FFF" stroke-linecap="round" stroke-width="5" d="M44.7118421,14.1307895 L16.6713158,41.5413158"/>
  </g>
</svg>
