<svg width="41" height="40" viewBox="0 0 41 40" fill="none" xmlns="http://www.w3.org/2000/svg">
<ellipse cx="20.5" cy="20" rx="20.5" ry="20" fill="#6B60F1"/>
<path d="M15.5833 19.5C17.9667 19.5 19.9167 17.5875 19.9167 15.25C19.9167 12.9125 17.9667 11 15.5833 11C13.2 11 11.25 12.9125 11.25 15.25C11.25 17.5875 13.2 19.5 15.5833 19.5ZM19.9167 28V22.3687C18.725 21.9437 17.2083 21.625 15.5833 21.625C11.3583 21.625 8 23.5375 8 25.875V28H19.9167ZM31.8333 11H24.25C23.0583 11 22.0833 11.9562 22.0833 13.125V25.875C22.0833 27.0438 23.0583 28 24.25 28H31.8333C33.025 28 34 27.0438 34 25.875V13.125C34 11.9562 33.025 11 31.8333 11ZM27.5 25.875H25.3333V13.125H27.5V25.875Z" fill="white"/>
</svg>
