<svg xmlns="http://www.w3.org/2000/svg" width="62" height="62" viewBox="0 0 62 62">
  <g fill="#6B60F1" fill-rule="evenodd" transform="translate(1 1)">
    <circle cx="30" cy="30" r="29.736" stroke-linecap="round" stroke-linejoin="round" stroke-width="2"/>
    <g fill="#FFFFFF" fill-rule="nonzero" transform="translate(18.158 11.053)">
      <path d="M11.6392105,12.5960526 C11.6392105,11.5286842 11.2318421,10.5615789 10.5757895,9.82342105 C10.5323684,9.77526316 10.4984211,9.71921053 10.4534211,9.67263158 C10.4005263,9.61815789 10.3357895,9.57552632 10.2789474,9.52421053 C9.75157895,9.03868421 9.10578947,8.68263158 8.37868421,8.53184211 C8.11105263,8.47657895 7.83394737,8.44736842 7.54894737,8.44736842 L4.50947368,8.44736842 C2.23026316,8.44736842 0.418421053,10.2584211 0.36,12.5376316 L0.302368421,18.4989474 C0.302368421,19.9018421 1.00263158,21.1294737 2.055,21.8889474 C2.055,22.005 1.99657895,22.1218421 1.99657895,22.2394737 L1.93736842,35.0960526 C1.93736842,36.0307895 2.69763158,36.8478947 3.63236842,36.8478947 C4.56710526,36.8478947 5.32736842,36.0892105 5.38578947,35.1536842 L5.39605263,33.6663158 L5.44421053,35.0368421 L5.50263158,26.445 L6.38052632,26.445 L6.32131579,35.1528947 C6.32131579,36.0884211 7.08078947,36.8471053 8.01552632,36.9063158 C8.73,36.9063158 9.37342105,36.4626316 9.63868421,35.8365789 C9.75552632,35.6115789 9.82815789,35.3621053 9.82815789,35.0960526 L9.88578947,22.2394737 C9.88578947,22.1407895 9.87868421,22.0428947 9.84473684,21.9442105 C10.3618421,21.5542105 10.7881579,21.0623684 11.0818421,20.4915789 C11.3984211,19.9215789 11.5807895,19.2710526 11.5807895,18.5573684 L11.6392105,12.5960526 Z"/>
      <path stroke="#6B60F1" d="M5.66526316,9.46026316 C7.815,9.46026316 9.54868421,7.24105263 9.54868421,4.46763158 C9.54868421,1.69342105 7.815,0.723157895 5.66526316,0.723157895 C3.51552632,0.723157895 1.78263158,1.76368421 1.78263158,4.46763158 C1.78184211,7.17315789 3.51552632,9.46026316 5.66526316,9.46026316 Z"/>
    </g>
    <g fill="#FFFFFF" fill-rule="nonzero" transform="translate(36.316 22.895)">
      <path d="M8.29026316,8.61236842 C8.29026316,7.89 8.01473684,7.23631579 7.57026316,6.73578947 C7.54184211,6.70342105 7.51894737,6.66552632 7.48815789,6.63394737 C7.45263158,6.59763158 7.40842105,6.56842105 7.37052632,6.53368421 C7.01447368,6.20447368 6.57631579,5.96368421 6.08526316,5.86184211 C5.90447368,5.82473684 5.71657895,5.805 5.52315789,5.805 L3.46736842,5.805 C1.92394737,5.805 0.697894737,7.03026316 0.657631579,8.57289474 L0.618947368,12.6071053 C0.618947368,13.5560526 1.09342105,14.3865789 1.80552632,14.9013158 C1.80552632,14.9802632 1.76605263,15.0584211 1.76605263,15.1389474 L1.725,23.8397368 C1.725,24.4728947 2.23973684,25.0255263 2.87289474,25.0255263 C3.50605263,25.0255263 4.02,24.5131579 4.05947368,23.8792105 L4.06657895,22.8734211 L4.09894737,23.8010526 L4.13842105,17.9865789 L4.73210526,17.9865789 L4.69184211,23.88 C4.69184211,24.5139474 5.20578947,25.0263158 5.83894737,25.0665789 C6.32210526,25.0665789 6.75710526,24.7657895 6.93789474,24.3426316 C7.01684211,24.1902632 7.06578947,24.0221053 7.06578947,23.8405263 L7.10526316,15.1397368 C7.10526316,15.0726316 7.10052632,15.0063158 7.07763158,14.94 C7.42657895,14.6755263 7.71552632,14.3423684 7.91526316,13.9563158 C8.12921053,13.5718421 8.25315789,13.1305263 8.25315789,12.6473684 L8.29026316,8.61236842 Z"/>
      <path stroke="#6B60F1" d="M4.24815789,6.49026316 C5.70236842,6.49026316 6.87552632,4.98789474 6.87552632,3.11131579 C6.87552632,1.23394737 5.70236842,0.577105263 4.24815789,0.577105263 C2.79236842,0.577105263 1.62,1.28131579 1.62,3.11131579 C1.62,4.94210526 2.79236842,6.49026316 4.24815789,6.49026316 Z"/>
    </g>
  </g>
</svg>
